<svg width="24" height="24" viewBox="0 0 24 24" fill="none" xmlns="http://www.w3.org/2000/svg">
<path d="M19.0901 2.60999H5.09009C4.29444 2.60999 3.53138 2.92606 2.96877 3.48867C2.40616 4.05127 2.09009 4.81434 2.09009 5.60999V14.61C2.09009 15.4056 2.40616 16.1687 2.96877 16.7313C3.53138 17.2939 4.29444 17.61 5.09009 17.61H11.0901V19.61H7.09009C6.82487 19.61 6.57052 19.7153 6.38298 19.9029C6.19545 20.0904 6.09009 20.3448 6.09009 20.61C6.09009 20.8752 6.19545 21.1296 6.38298 21.3171C6.57052 21.5046 6.82487 21.61 7.09009 21.61H17.0901C17.3553 21.61 17.6097 21.5046 17.7972 21.3171C17.9847 21.1296 18.0901 20.8752 18.0901 20.61C18.0901 20.3448 17.9847 20.0904 17.7972 19.9029C17.6097 19.7153 17.3553 19.61 17.0901 19.61H13.0901V17.61H19.0901C19.8857 17.61 20.6488 17.2939 21.2114 16.7313C21.774 16.1687 22.0901 15.4056 22.0901 14.61V5.60999C22.0901 4.81434 21.774 4.05127 21.2114 3.48867C20.6488 2.92606 19.8857 2.60999 19.0901 2.60999ZM20.0901 14.61C20.0901 14.8752 19.9847 15.1296 19.7972 15.3171C19.6097 15.5046 19.3553 15.61 19.0901 15.61H5.09009C4.82487 15.61 4.57052 15.5046 4.38298 15.3171C4.19544 15.1296 4.09009 14.8752 4.09009 14.61V5.60999C4.09009 5.34477 4.19544 5.09042 4.38298 4.90288C4.57052 4.71534 4.82487 4.60999 5.09009 4.60999H19.0901C19.3553 4.60999 19.6097 4.71534 19.7972 4.90288C19.9847 5.09042 20.0901 5.34477 20.0901 5.60999V14.61ZM17.0901 7.60999C17.0901 7.8752 16.9847 8.12956 16.7972 8.31709C16.6097 8.50463 16.3553 8.60999 16.0901 8.60999H8.09009C7.82487 8.60999 7.57052 8.50463 7.38298 8.31709C7.19545 8.12956 7.09009 7.8752 7.09009 7.60999C7.09009 7.34477 7.19545 7.09042 7.38298 6.90288C7.57052 6.71534 7.82487 6.60999 8.09009 6.60999H16.0901C16.2214 6.60999 16.3514 6.63585 16.4728 6.68611C16.5941 6.73636 16.7043 6.81002 16.7972 6.90288C16.8901 6.99574 16.9637 7.10598 17.014 7.2273C17.0642 7.34863 17.0901 7.47866 17.0901 7.60999Z" fill="#009D9C"/>
</svg>
